<svg width="189" height="165" viewBox="0 0 189 165" fill="none" xmlns="http://www.w3.org/2000/svg">
<path d="M1.10958 55V46.6H7.86558V55H6.52158V47.83H2.45358V55H1.10958ZM12.589 55.18C11.949 55.18 11.387 55.05 10.903 54.79C10.419 54.526 10.041 54.158 9.76898 53.686C9.50098 53.214 9.36698 52.666 9.36698 52.042C9.36698 51.586 9.44498 51.166 9.60098 50.782C9.75698 50.394 9.97698 50.058 10.261 49.774C10.545 49.49 10.877 49.27 11.257 49.114C11.641 48.958 12.059 48.88 12.511 48.88C13.003 48.88 13.441 48.968 13.825 49.144C14.209 49.316 14.527 49.558 14.779 49.87C15.035 50.182 15.215 50.548 15.319 50.968C15.427 51.384 15.445 51.836 15.373 52.324H10.633C10.625 52.68 10.703 52.992 10.867 53.26C11.031 53.524 11.265 53.73 11.569 53.878C11.877 54.026 12.239 54.1 12.655 54.1C12.991 54.1 13.315 54.05 13.627 53.95C13.943 53.846 14.229 53.694 14.485 53.494L14.995 54.442C14.803 54.598 14.571 54.732 14.299 54.844C14.027 54.952 13.743 55.034 13.447 55.09C13.151 55.15 12.865 55.18 12.589 55.18ZM10.711 51.352H14.077C14.065 50.904 13.921 50.552 13.645 50.296C13.373 50.04 12.985 49.912 12.481 49.912C11.993 49.912 11.587 50.04 11.263 50.296C10.943 50.552 10.759 50.904 10.711 51.352ZM16.7442 57.52V49.06H17.9322V49.894C18.1682 49.594 18.4702 49.35 18.8382 49.162C19.2062 48.974 19.6602 48.88 20.2002 48.88C20.7802 48.88 21.2942 49.018 21.7422 49.294C22.1942 49.566 22.5462 49.94 22.7982 50.416C23.0502 50.888 23.1762 51.426 23.1762 52.03C23.1762 52.466 23.1042 52.876 22.9602 53.26C22.8162 53.64 22.6102 53.974 22.3422 54.262C22.0782 54.55 21.7622 54.776 21.3942 54.94C21.0302 55.1 20.6262 55.18 20.1822 55.18C19.7182 55.18 19.3102 55.096 18.9582 54.928C18.6062 54.76 18.3062 54.534 18.0582 54.25V57.52H16.7442ZM19.9602 54.01C20.3282 54.01 20.6542 53.93 20.9382 53.77C21.2262 53.606 21.4502 53.376 21.6102 53.08C21.7742 52.784 21.8562 52.434 21.8562 52.03C21.8562 51.626 21.7742 51.276 21.6102 50.98C21.4462 50.68 21.2202 50.45 20.9322 50.29C20.6482 50.13 20.3242 50.05 19.9602 50.05C19.5922 50.05 19.2642 50.13 18.9762 50.29C18.6922 50.45 18.4682 50.68 18.3042 50.98C18.1402 51.276 18.0582 51.626 18.0582 52.03C18.0582 52.434 18.1402 52.784 18.3042 53.08C18.4682 53.376 18.6922 53.606 18.9762 53.77C19.2642 53.93 19.5922 54.01 19.9602 54.01ZM27.2726 55.18C26.6326 55.18 26.0706 55.05 25.5866 54.79C25.1026 54.526 24.7246 54.158 24.4526 53.686C24.1846 53.214 24.0506 52.666 24.0506 52.042C24.0506 51.586 24.1286 51.166 24.2846 50.782C24.4406 50.394 24.6606 50.058 24.9446 49.774C25.2286 49.49 25.5606 49.27 25.9406 49.114C26.3246 48.958 26.7426 48.88 27.1946 48.88C27.6866 48.88 28.1246 48.968 28.5086 49.144C28.8926 49.316 29.2106 49.558 29.4626 49.87C29.7186 50.182 29.8986 50.548 30.0026 50.968C30.1106 51.384 30.1286 51.836 30.0566 52.324H25.3166C25.3086 52.68 25.3866 52.992 25.5506 53.26C25.7146 53.524 25.9486 53.73 26.2526 53.878C26.5606 54.026 26.9226 54.1 27.3386 54.1C27.6746 54.1 27.9986 54.05 28.3106 53.95C28.6266 53.846 28.9126 53.694 29.1686 53.494L29.6786 54.442C29.4866 54.598 29.2546 54.732 28.9826 54.844C28.7106 54.952 28.4266 55.034 28.1306 55.09C27.8346 55.15 27.5486 55.18 27.2726 55.18ZM25.3946 51.352H28.7606C28.7486 50.904 28.6046 50.552 28.3286 50.296C28.0566 50.04 27.6686 49.912 27.1646 49.912C26.6766 49.912 26.2706 50.04 25.9466 50.296C25.6266 50.552 25.4426 50.904 25.3946 51.352ZM32.7538 55V50.152H30.8038V49.06H36.0298V50.152H34.0738V55H32.7538ZM38.8903 55.18C38.4783 55.18 38.1163 55.104 37.8043 54.952C37.4923 54.796 37.2483 54.578 37.0723 54.298C36.9003 54.014 36.8143 53.68 36.8143 53.296C36.8143 52.972 36.8963 52.68 37.0603 52.42C37.2243 52.156 37.4783 51.938 37.8223 51.766C38.1703 51.594 38.6163 51.48 39.1603 51.424C39.7043 51.364 40.3583 51.372 41.1223 51.448L41.1463 52.36C40.6023 52.284 40.1343 52.252 39.7423 52.264C39.3503 52.276 39.0283 52.326 38.7763 52.414C38.5283 52.498 38.3443 52.612 38.2243 52.756C38.1083 52.896 38.0503 53.058 38.0503 53.242C38.0503 53.53 38.1523 53.752 38.3563 53.908C38.5643 54.064 38.8483 54.142 39.2083 54.142C39.5163 54.142 39.7923 54.086 40.0363 53.974C40.2803 53.862 40.4723 53.704 40.6123 53.5C40.7563 53.296 40.8283 53.056 40.8283 52.78V51.202C40.8283 50.938 40.7723 50.71 40.6603 50.518C40.5483 50.322 40.3783 50.17 40.1503 50.062C39.9223 49.954 39.6383 49.9 39.2983 49.9C38.9863 49.9 38.6783 49.948 38.3743 50.044C38.0703 50.136 37.7803 50.282 37.5043 50.482L37.1323 49.51C37.5043 49.258 37.8923 49.08 38.2963 48.976C38.7003 48.872 39.0883 48.82 39.4603 48.82C40.0123 48.82 40.4843 48.908 40.8763 49.084C41.2723 49.256 41.5763 49.518 41.7883 49.87C42.0003 50.218 42.1063 50.658 42.1063 51.19V55H40.9183V54.298C40.7183 54.582 40.4403 54.8 40.0843 54.952C39.7283 55.104 39.3303 55.18 38.8903 55.18ZM46.5854 55.18C45.9614 55.18 45.4054 55.044 44.9174 54.772C44.4294 54.496 44.0454 54.122 43.7654 53.65C43.4894 53.174 43.3514 52.634 43.3514 52.03C43.3514 51.574 43.4334 51.156 43.5974 50.776C43.7614 50.392 43.9934 50.058 44.2934 49.774C44.5934 49.49 44.9454 49.27 45.3494 49.114C45.7574 48.958 46.1994 48.88 46.6754 48.88C47.0754 48.88 47.4454 48.934 47.7854 49.042C48.1294 49.146 48.4454 49.308 48.7334 49.528L48.0974 50.536C47.9134 50.372 47.7014 50.25 47.4614 50.17C47.2254 50.09 46.9734 50.05 46.7054 50.05C46.2894 50.05 45.9314 50.128 45.6314 50.284C45.3314 50.44 45.0974 50.666 44.9294 50.962C44.7654 51.254 44.6834 51.608 44.6834 52.024C44.6834 52.644 44.8634 53.13 45.2234 53.482C45.5874 53.834 46.0814 54.01 46.7054 54.01C47.0014 54.01 47.2814 53.956 47.5454 53.848C47.8094 53.736 48.0294 53.59 48.2054 53.41L48.8354 54.412C48.5194 54.652 48.1674 54.84 47.7794 54.976C47.3914 55.112 46.9934 55.18 46.5854 55.18ZM53.9969 55L52.0289 51.844L53.8589 49.06H55.2689L53.4509 51.784L55.5749 55H53.9969ZM50.0489 55V49.06H51.3689V51.352H53.1569V52.444H51.3689V55H50.0489ZM56.7403 55V49.06H58.0183V53.068L61.2403 49.06H62.3923V55H61.1203V50.944L57.8683 55H56.7403ZM64.2285 55V49.06H67.0605C67.7325 49.06 68.2705 49.188 68.6745 49.444C69.0785 49.7 69.2805 50.084 69.2805 50.596C69.2805 50.836 69.2225 51.05 69.1065 51.238C68.9905 51.422 68.8305 51.576 68.6265 51.7C68.4225 51.824 68.1845 51.914 67.9125 51.97L67.8885 51.676C68.4125 51.748 68.8185 51.922 69.1065 52.198C69.3945 52.474 69.5385 52.824 69.5385 53.248C69.5385 53.608 69.4445 53.92 69.2565 54.184C69.0685 54.444 68.7985 54.646 68.4465 54.79C68.0945 54.93 67.6725 55 67.1805 55H64.2285ZM65.5065 54.022H67.0005C67.3965 54.022 67.7005 53.956 67.9125 53.824C68.1285 53.692 68.2365 53.494 68.2365 53.23C68.2365 52.97 68.1305 52.776 67.9185 52.648C67.7065 52.516 67.4005 52.45 67.0005 52.45H65.3325V51.508H66.8625C67.2345 51.508 67.5225 51.452 67.7265 51.34C67.9305 51.224 68.0325 51.036 68.0325 50.776C68.0325 50.516 67.9305 50.328 67.7265 50.212C67.5225 50.092 67.2345 50.032 66.8625 50.032H65.5065V54.022ZM72.6754 55.18C72.2634 55.18 71.9014 55.104 71.5894 54.952C71.2774 54.796 71.0334 54.578 70.8574 54.298C70.6854 54.014 70.5994 53.68 70.5994 53.296C70.5994 52.972 70.6814 52.68 70.8454 52.42C71.0094 52.156 71.2634 51.938 71.6074 51.766C71.9554 51.594 72.4014 51.48 72.9454 51.424C73.4894 51.364 74.1434 51.372 74.9074 51.448L74.9314 52.36C74.3874 52.284 73.9194 52.252 73.5274 52.264C73.1354 52.276 72.8134 52.326 72.5614 52.414C72.3134 52.498 72.1294 52.612 72.0094 52.756C71.8934 52.896 71.8354 53.058 71.8354 53.242C71.8354 53.53 71.9374 53.752 72.1414 53.908C72.3494 54.064 72.6334 54.142 72.9934 54.142C73.3014 54.142 73.5774 54.086 73.8214 53.974C74.0654 53.862 74.2574 53.704 74.3974 53.5C74.5414 53.296 74.6134 53.056 74.6134 52.78V51.202C74.6134 50.938 74.5574 50.71 74.4454 50.518C74.3334 50.322 74.1634 50.17 73.9354 50.062C73.7074 49.954 73.4234 49.9 73.0834 49.9C72.7714 49.9 72.4634 49.948 72.1594 50.044C71.8554 50.136 71.5654 50.282 71.2894 50.482L70.9174 49.51C71.2894 49.258 71.6774 49.08 72.0814 48.976C72.4854 48.872 72.8734 48.82 73.2454 48.82C73.7974 48.82 74.2694 48.908 74.6614 49.084C75.0574 49.256 75.3614 49.518 75.5734 49.87C75.7854 50.218 75.8914 50.658 75.8914 51.19V55H74.7034V54.298C74.5034 54.582 74.2254 54.8 73.8694 54.952C73.5134 55.104 73.1154 55.18 72.6754 55.18ZM77.6465 55V49.06H78.9245V53.068L82.1465 49.06H83.2985V55H82.0265V50.944L78.7745 55H77.6465ZM80.4725 48.04C80.0285 48.04 79.6385 47.948 79.3025 47.764C78.9665 47.58 78.7065 47.326 78.5225 47.002C78.3385 46.678 78.2525 46.306 78.2645 45.886H79.3685C79.3525 46.254 79.4445 46.552 79.6445 46.78C79.8485 47.004 80.1245 47.116 80.4725 47.116C80.8205 47.116 81.0945 47.004 81.2945 46.78C81.4945 46.552 81.5845 46.254 81.5645 45.886H82.6745C82.6825 46.302 82.5925 46.672 82.4045 46.996C82.2205 47.32 81.9605 47.576 81.6245 47.764C81.2925 47.948 80.9085 48.04 80.4725 48.04ZM86.4608 55V50.152H84.5108V49.06H89.7368V50.152H87.7808V55H86.4608ZM93.6593 55.18C93.0193 55.18 92.4573 55.05 91.9733 54.79C91.4893 54.526 91.1113 54.158 90.8393 53.686C90.5713 53.214 90.4373 52.666 90.4373 52.042C90.4373 51.586 90.5153 51.166 90.6713 50.782C90.8273 50.394 91.0473 50.058 91.3313 49.774C91.6153 49.49 91.9473 49.27 92.3273 49.114C92.7113 48.958 93.1293 48.88 93.5813 48.88C94.0733 48.88 94.5113 48.968 94.8953 49.144C95.2793 49.316 95.5973 49.558 95.8493 49.87C96.1053 50.182 96.2853 50.548 96.3893 50.968C96.4973 51.384 96.5153 51.836 96.4433 52.324H91.7033C91.6953 52.68 91.7733 52.992 91.9373 53.26C92.1013 53.524 92.3353 53.73 92.6393 53.878C92.9473 54.026 93.3093 54.1 93.7253 54.1C94.0613 54.1 94.3853 54.05 94.6973 53.95C95.0133 53.846 95.2993 53.694 95.5553 53.494L96.0653 54.442C95.8733 54.598 95.6413 54.732 95.3693 54.844C95.0973 54.952 94.8133 55.034 94.5173 55.09C94.2213 55.15 93.9353 55.18 93.6593 55.18ZM91.7813 51.352H95.1473C95.1353 50.904 94.9913 50.552 94.7153 50.296C94.4433 50.04 94.0553 49.912 93.5513 49.912C93.0633 49.912 92.6573 50.04 92.3333 50.296C92.0133 50.552 91.8293 50.904 91.7813 51.352ZM100.756 55V49.06H102.034V53.068L105.256 49.06H106.408V55H105.136V50.944L101.884 55H100.756ZM108.028 55.102L107.566 53.914C107.974 53.81 108.272 53.646 108.46 53.422C108.652 53.198 108.772 52.886 108.82 52.486C108.872 52.086 108.898 51.57 108.898 50.938V49.06H113.728V55H112.408V50.152H110.128V50.938C110.128 51.574 110.098 52.128 110.038 52.6C109.982 53.072 109.878 53.474 109.726 53.806C109.574 54.138 109.36 54.41 109.084 54.622C108.812 54.83 108.46 54.99 108.028 55.102ZM115.568 55V49.06H116.846V53.068L120.068 49.06H121.22V55H119.948V50.944L116.696 55H115.568ZM0.935578 69V63.06H6.54558V69H5.22558V64.152H2.25558V69H0.935578ZM8.37698 71.52V63.06H9.56498V63.894C9.80098 63.594 10.103 63.35 10.471 63.162C10.839 62.974 11.293 62.88 11.833 62.88C12.413 62.88 12.927 63.018 13.375 63.294C13.827 63.566 14.179 63.94 14.431 64.416C14.683 64.888 14.809 65.426 14.809 66.03C14.809 66.466 14.737 66.876 14.593 67.26C14.449 67.64 14.243 67.974 13.975 68.262C13.711 68.55 13.395 68.776 13.027 68.94C12.663 69.1 12.259 69.18 11.815 69.18C11.351 69.18 10.943 69.096 10.591 68.928C10.239 68.76 9.93898 68.534 9.69098 68.25V71.52H8.37698ZM11.593 68.01C11.961 68.01 12.287 67.93 12.571 67.77C12.859 67.606 13.083 67.376 13.243 67.08C13.407 66.784 13.489 66.434 13.489 66.03C13.489 65.626 13.407 65.276 13.243 64.98C13.079 64.68 12.853 64.45 12.565 64.29C12.281 64.13 11.957 64.05 11.593 64.05C11.225 64.05 10.897 64.13 10.609 64.29C10.325 64.45 10.101 64.68 9.93698 64.98C9.77298 65.276 9.69098 65.626 9.69098 66.03C9.69098 66.434 9.77298 66.784 9.93698 67.08C10.101 67.376 10.325 67.606 10.609 67.77C10.897 67.93 11.225 68.01 11.593 68.01ZM18.8994 69.18C18.2794 69.18 17.7254 69.038 17.2374 68.754C16.7534 68.466 16.3734 68.084 16.0974 67.608C15.8214 67.128 15.6834 66.602 15.6834 66.03C15.6834 65.606 15.7614 65.206 15.9174 64.83C16.0774 64.45 16.3014 64.114 16.5894 63.822C16.8814 63.53 17.2234 63.3 17.6154 63.132C18.0074 62.964 18.4374 62.88 18.9054 62.88C19.5254 62.88 20.0774 63.024 20.5614 63.312C21.0494 63.596 21.4314 63.978 21.7074 64.458C21.9834 64.934 22.1214 65.458 22.1214 66.03C22.1214 66.45 22.0414 66.85 21.8814 67.23C21.7254 67.61 21.5034 67.946 21.2154 68.238C20.9274 68.53 20.5874 68.76 20.1954 68.928C19.8034 69.096 19.3714 69.18 18.8994 69.18ZM18.8994 68.01C19.2674 68.01 19.5934 67.93 19.8774 67.77C20.1654 67.606 20.3914 67.376 20.5554 67.08C20.7194 66.784 20.8014 66.434 20.8014 66.03C20.8014 65.626 20.7194 65.276 20.5554 64.98C20.3914 64.68 20.1654 64.45 19.8774 64.29C19.5934 64.13 19.2674 64.05 18.8994 64.05C18.5314 64.05 18.2034 64.13 17.9154 64.29C17.6314 64.45 17.4074 64.68 17.2434 64.98C17.0834 65.276 17.0034 65.626 17.0034 66.03C17.0034 66.434 17.0854 66.784 17.2494 67.08C17.4134 67.376 17.6374 67.606 17.9214 67.77C18.2094 67.93 18.5354 68.01 18.8994 68.01ZM27.3953 69L25.4273 65.844L27.2573 63.06H28.6673L26.8493 65.784L28.9733 69H27.3953ZM23.4473 69V63.06H24.7673V65.352H26.5553V66.444H24.7673V69H23.4473ZM30.1387 71.52V63.06H31.3267V63.894C31.5627 63.594 31.8647 63.35 32.2327 63.162C32.6007 62.974 33.0547 62.88 33.5947 62.88C34.1747 62.88 34.6887 63.018 35.1367 63.294C35.5887 63.566 35.9407 63.94 36.1927 64.416C36.4447 64.888 36.5707 65.426 36.5707 66.03C36.5707 66.466 36.4987 66.876 36.3547 67.26C36.2107 67.64 36.0047 67.974 35.7367 68.262C35.4727 68.55 35.1567 68.776 34.7887 68.94C34.4247 69.1 34.0207 69.18 33.5767 69.18C33.1127 69.18 32.7047 69.096 32.3527 68.928C32.0007 68.76 31.7007 68.534 31.4527 68.25V71.52H30.1387ZM33.3547 68.01C33.7227 68.01 34.0487 67.93 34.3327 67.77C34.6207 67.606 34.8447 67.376 35.0047 67.08C35.1687 66.784 35.2507 66.434 35.2507 66.03C35.2507 65.626 35.1687 65.276 35.0047 64.98C34.8407 64.68 34.6147 64.45 34.3267 64.29C34.0427 64.13 33.7187 64.05 33.3547 64.05C32.9867 64.05 32.6587 64.13 32.3707 64.29C32.0867 64.45 31.8627 64.68 31.6987 64.98C31.5347 65.276 31.4527 65.626 31.4527 66.03C31.4527 66.434 31.5347 66.784 31.6987 67.08C31.8627 67.376 32.0867 67.606 32.3707 67.77C32.6587 67.93 32.9867 68.01 33.3547 68.01ZM38.3479 71.688C38.1319 71.688 37.9199 71.664 37.7119 71.616C37.5039 71.568 37.2999 71.486 37.0999 71.37L37.3999 70.242C37.5239 70.322 37.6599 70.382 37.8079 70.422C37.9559 70.462 38.0879 70.482 38.2039 70.482C38.4839 70.482 38.7039 70.416 38.8639 70.284C39.0239 70.152 39.1499 69.948 39.2419 69.672L39.4399 69.096L37.0999 63.06H38.5459L40.1899 67.668L41.7919 63.06H43.1899L40.6219 69.858C40.4379 70.334 40.2319 70.704 40.0039 70.968C39.7759 71.236 39.5239 71.422 39.2479 71.526C38.9719 71.634 38.6719 71.688 38.3479 71.688ZM47.945 69V66.678C47.665 66.75 47.399 66.804 47.147 66.84C46.899 66.876 46.637 66.894 46.361 66.894C45.829 66.894 45.381 66.812 45.017 66.648C44.653 66.484 44.379 66.236 44.195 65.904C44.011 65.572 43.919 65.154 43.919 64.65V63.06H45.239V64.464C45.239 64.888 45.341 65.21 45.545 65.43C45.749 65.65 46.097 65.76 46.589 65.76C46.873 65.76 47.121 65.748 47.333 65.724C47.549 65.696 47.753 65.662 47.945 65.622V63.06H49.265V69H47.945ZM51.1035 69V63.06H52.3815V67.068L55.6035 63.06H56.7555V69H55.4835V64.944L52.2315 69H51.1035ZM58.5918 69V63.06H61.4238C62.0958 63.06 62.6338 63.188 63.0378 63.444C63.4418 63.7 63.6438 64.084 63.6438 64.596C63.6438 64.836 63.5858 65.05 63.4698 65.238C63.3538 65.422 63.1938 65.576 62.9898 65.7C62.7858 65.824 62.5478 65.914 62.2758 65.97L62.2518 65.676C62.7758 65.748 63.1818 65.922 63.4698 66.198C63.7578 66.474 63.9018 66.824 63.9018 67.248C63.9018 67.608 63.8078 67.92 63.6198 68.184C63.4318 68.444 63.1618 68.646 62.8098 68.79C62.4578 68.93 62.0358 69 61.5438 69H58.5918ZM59.8698 68.022H61.3638C61.7598 68.022 62.0638 67.956 62.2758 67.824C62.4918 67.692 62.5998 67.494 62.5998 67.23C62.5998 66.97 62.4938 66.776 62.2818 66.648C62.0698 66.516 61.7638 66.45 61.3638 66.45H59.6958V65.508H61.2258C61.5978 65.508 61.8858 65.452 62.0898 65.34C62.2938 65.224 62.3958 65.036 62.3958 64.776C62.3958 64.516 62.2938 64.328 62.0898 64.212C61.8858 64.092 61.5978 64.032 61.2258 64.032H59.8698V68.022ZM67.0387 69.18C66.6267 69.18 66.2647 69.104 65.9527 68.952C65.6407 68.796 65.3967 68.578 65.2207 68.298C65.0487 68.014 64.9627 67.68 64.9627 67.296C64.9627 66.972 65.0447 66.68 65.2087 66.42C65.3727 66.156 65.6267 65.938 65.9707 65.766C66.3187 65.594 66.7647 65.48 67.3087 65.424C67.8527 65.364 68.5067 65.372 69.2707 65.448L69.2947 66.36C68.7507 66.284 68.2827 66.252 67.8907 66.264C67.4987 66.276 67.1767 66.326 66.9247 66.414C66.6767 66.498 66.4927 66.612 66.3727 66.756C66.2567 66.896 66.1987 67.058 66.1987 67.242C66.1987 67.53 66.3007 67.752 66.5047 67.908C66.7127 68.064 66.9967 68.142 67.3567 68.142C67.6647 68.142 67.9407 68.086 68.1847 67.974C68.4287 67.862 68.6207 67.704 68.7607 67.5C68.9047 67.296 68.9767 67.056 68.9767 66.78V65.202C68.9767 64.938 68.9207 64.71 68.8087 64.518C68.6967 64.322 68.5267 64.17 68.2987 64.062C68.0707 63.954 67.7867 63.9 67.4467 63.9C67.1347 63.9 66.8267 63.948 66.5227 64.044C66.2187 64.136 65.9287 64.282 65.6527 64.482L65.2807 63.51C65.6527 63.258 66.0407 63.08 66.4447 62.976C66.8487 62.872 67.2367 62.82 67.6087 62.82C68.1607 62.82 68.6327 62.908 69.0247 63.084C69.4207 63.256 69.7247 63.518 69.9367 63.87C70.1487 64.218 70.2547 64.658 70.2547 65.19V69H69.0667V68.298C68.8667 68.582 68.5887 68.8 68.2327 68.952C67.8767 69.104 67.4787 69.18 67.0387 69.18ZM72.0098 69V63.06H73.2878V67.068L76.5098 63.06H77.6618V69H76.3898V64.944L73.1378 69H72.0098ZM74.8358 62.04C74.3918 62.04 74.0018 61.948 73.6658 61.764C73.3298 61.58 73.0698 61.326 72.8858 61.002C72.7018 60.678 72.6158 60.306 72.6278 59.886H73.7318C73.7158 60.254 73.8078 60.552 74.0078 60.78C74.2118 61.004 74.4878 61.116 74.8358 61.116C75.1838 61.116 75.4578 61.004 75.6578 60.78C75.8578 60.552 75.9478 60.254 75.9278 59.886H77.0378C77.0458 60.302 76.9558 60.672 76.7678 60.996C76.5838 61.32 76.3238 61.576 75.9878 61.764C75.6558 61.948 75.2718 62.04 74.8358 62.04ZM80.8241 69V64.152H78.8741V63.06H84.1001V64.152H82.1441V69H80.8241ZM88.0226 69.18C87.3826 69.18 86.8206 69.05 86.3366 68.79C85.8526 68.526 85.4746 68.158 85.2026 67.686C84.9346 67.214 84.8006 66.666 84.8006 66.042C84.8006 65.586 84.8786 65.166 85.0346 64.782C85.1906 64.394 85.4106 64.058 85.6946 63.774C85.9786 63.49 86.3106 63.27 86.6906 63.114C87.0746 62.958 87.4926 62.88 87.9446 62.88C88.4366 62.88 88.8746 62.968 89.2586 63.144C89.6426 63.316 89.9606 63.558 90.2126 63.87C90.4686 64.182 90.6486 64.548 90.7526 64.968C90.8606 65.384 90.8786 65.836 90.8066 66.324H86.0666C86.0586 66.68 86.1366 66.992 86.3006 67.26C86.4646 67.524 86.6986 67.73 87.0026 67.878C87.3106 68.026 87.6726 68.1 88.0886 68.1C88.4246 68.1 88.7486 68.05 89.0606 67.95C89.3766 67.846 89.6626 67.694 89.9186 67.494L90.4286 68.442C90.2366 68.598 90.0046 68.732 89.7326 68.844C89.4606 68.952 89.1766 69.034 88.8806 69.09C88.5846 69.15 88.2986 69.18 88.0226 69.18ZM86.1446 65.352H89.5106C89.4986 64.904 89.3546 64.552 89.0786 64.296C88.8066 64.04 88.4186 63.912 87.9146 63.912C87.4266 63.912 87.0206 64.04 86.6966 64.296C86.3766 64.552 86.1926 64.904 86.1446 65.352ZM99.4332 69V64.152H97.0332V64.938C97.0332 65.478 97.0012 65.966 96.9372 66.402C96.8732 66.838 96.7592 67.222 96.5952 67.554C96.4312 67.882 96.2012 68.154 95.9052 68.37C95.6132 68.586 95.2392 68.744 94.7832 68.844L94.4592 67.95C94.8392 67.858 95.1252 67.686 95.3172 67.434C95.5092 67.182 95.6372 66.85 95.7012 66.438C95.7692 66.022 95.8032 65.522 95.8032 64.938V63.06H100.753V69H99.4332ZM94.4592 70.8V67.95L95.2752 68.034L95.4792 67.908H101.947V70.8H100.741V69H95.6652V70.8H94.4592ZM103.13 69.102L102.668 67.914C103.076 67.81 103.374 67.646 103.562 67.422C103.754 67.198 103.874 66.886 103.922 66.486C103.974 66.086 104 65.57 104 64.938V63.06H108.83V69H107.51V64.152H105.23V64.938C105.23 65.574 105.2 66.128 105.14 66.6C105.084 67.072 104.98 67.474 104.828 67.806C104.676 68.138 104.462 68.41 104.186 68.622C103.914 68.83 103.562 68.99 103.13 69.102ZM110.256 69L112.536 65.958L112.824 66.81C112.332 66.814 111.912 66.742 111.564 66.594C111.216 66.442 110.95 66.23 110.766 65.958C110.586 65.682 110.496 65.356 110.496 64.98C110.496 64.576 110.598 64.232 110.802 63.948C111.006 63.66 111.294 63.44 111.666 63.288C112.038 63.136 112.474 63.06 112.974 63.06H115.536V69H114.264V64.062H113.106C112.682 64.062 112.36 64.136 112.14 64.284C111.924 64.432 111.816 64.654 111.816 64.95C111.816 65.238 111.916 65.462 112.116 65.622C112.32 65.778 112.614 65.856 112.998 65.856H114.432V66.816H113.388L111.762 69H110.256ZM120.314 69V63.06H121.592V67.068L124.814 63.06H125.966V69H124.694V64.944L121.442 69H120.314ZM129.807 69.144C129.475 69.144 129.155 69.118 128.847 69.066C128.539 69.018 128.249 68.942 127.977 68.838C127.705 68.73 127.459 68.588 127.239 68.412L127.815 67.518C128.067 67.73 128.365 67.884 128.709 67.98C129.053 68.072 129.403 68.118 129.759 68.118C130.243 68.118 130.625 68.048 130.905 67.908C131.185 67.764 131.325 67.528 131.325 67.2C131.325 66.912 131.177 66.706 130.881 66.582C130.589 66.458 130.163 66.396 129.603 66.396H128.511V65.4H129.567C130.063 65.4 130.445 65.344 130.713 65.232C130.981 65.116 131.115 64.92 131.115 64.644C131.115 64.48 131.057 64.344 130.941 64.236C130.829 64.128 130.669 64.046 130.461 63.99C130.257 63.934 130.017 63.906 129.741 63.906C129.401 63.906 129.073 63.956 128.757 64.056C128.441 64.156 128.165 64.31 127.929 64.518L127.437 63.636C127.741 63.384 128.109 63.192 128.541 63.06C128.973 62.924 129.409 62.856 129.849 62.856C130.361 62.856 130.801 62.92 131.169 63.048C131.537 63.176 131.821 63.36 132.021 63.6C132.221 63.84 132.321 64.13 132.321 64.47C132.321 64.774 132.223 65.038 132.027 65.262C131.835 65.486 131.555 65.648 131.187 65.748C131.635 65.848 131.975 66.024 132.207 66.276C132.443 66.528 132.561 66.844 132.561 67.224C132.561 67.624 132.447 67.968 132.219 68.256C131.995 68.54 131.675 68.76 131.259 68.916C130.847 69.068 130.363 69.144 129.807 69.144ZM134.512 71.688C134.296 71.688 134.084 71.664 133.876 71.616C133.668 71.568 133.464 71.486 133.264 71.37L133.564 70.242C133.688 70.322 133.824 70.382 133.972 70.422C134.12 70.462 134.252 70.482 134.368 70.482C134.648 70.482 134.868 70.416 135.028 70.284C135.188 70.152 135.314 69.948 135.406 69.672L135.604 69.096L133.264 63.06H134.71L136.354 67.668L137.956 63.06H139.354L136.786 69.858C136.602 70.334 136.396 70.704 136.168 70.968C135.94 71.236 135.688 71.422 135.412 71.526C135.136 71.634 134.836 71.688 134.512 71.688ZM144.109 69V66.678C143.829 66.75 143.563 66.804 143.311 66.84C143.063 66.876 142.801 66.894 142.525 66.894C141.993 66.894 141.545 66.812 141.181 66.648C140.817 66.484 140.543 66.236 140.359 65.904C140.175 65.572 140.083 65.154 140.083 64.65V63.06H141.403V64.464C141.403 64.888 141.505 65.21 141.709 65.43C141.913 65.65 142.261 65.76 142.753 65.76C143.037 65.76 143.285 65.748 143.497 65.724C143.713 65.696 143.917 65.662 144.109 65.622V63.06H145.429V69H144.109ZM149.98 69.18C149.34 69.18 148.778 69.05 148.294 68.79C147.81 68.526 147.432 68.158 147.16 67.686C146.892 67.214 146.758 66.666 146.758 66.042C146.758 65.586 146.836 65.166 146.992 64.782C147.148 64.394 147.368 64.058 147.652 63.774C147.936 63.49 148.268 63.27 148.648 63.114C149.032 62.958 149.45 62.88 149.902 62.88C150.394 62.88 150.832 62.968 151.216 63.144C151.6 63.316 151.918 63.558 152.17 63.87C152.426 64.182 152.606 64.548 152.71 64.968C152.818 65.384 152.836 65.836 152.764 66.324H148.024C148.016 66.68 148.094 66.992 148.258 67.26C148.422 67.524 148.656 67.73 148.96 67.878C149.268 68.026 149.63 68.1 150.046 68.1C150.382 68.1 150.706 68.05 151.018 67.95C151.334 67.846 151.62 67.694 151.876 67.494L152.386 68.442C152.194 68.598 151.962 68.732 151.69 68.844C151.418 68.952 151.134 69.034 150.838 69.09C150.542 69.15 150.256 69.18 149.98 69.18ZM148.102 65.352H151.468C151.456 64.904 151.312 64.552 151.036 64.296C150.764 64.04 150.376 63.912 149.872 63.912C149.384 63.912 148.978 64.04 148.654 64.296C148.334 64.552 148.15 64.904 148.102 65.352ZM154.135 69V63.06H155.455V65.352H158.431V63.06H159.751V69H158.431V66.444H155.455V69H154.135ZM161.588 69V63.06H162.866V67.068L166.088 63.06H167.24V69H165.968V64.944L162.716 69H161.588ZM168.662 69L170.942 65.958L171.23 66.81C170.738 66.814 170.318 66.742 169.97 66.594C169.622 66.442 169.356 66.23 169.172 65.958C168.992 65.682 168.902 65.356 168.902 64.98C168.902 64.576 169.004 64.232 169.208 63.948C169.412 63.66 169.7 63.44 170.072 63.288C170.444 63.136 170.88 63.06 171.38 63.06H173.942V69H172.67V64.062H171.512C171.088 64.062 170.766 64.136 170.546 64.284C170.33 64.432 170.222 64.654 170.222 64.95C170.222 65.238 170.322 65.462 170.522 65.622C170.726 65.778 171.02 65.856 171.404 65.856H172.838V66.816H171.794L170.168 69H168.662Z" fill="white" fill-opacity="0.7"/>
<path d="M15.3442 11.2492C15.8491 10.1429 16.4296 9.75401 17.6299 9.84602C19.3641 9.97965 19.9492 11.7147 20.1141 13.257C20.3069 12.7564 20.5867 11.8275 20.999 11.5395C21.7591 11.006 22.576 10.8987 23.4364 11.2492C24.3425 11.6194 24.8385 12.3117 24.9889 13.257C25.0079 13.3753 24.8462 14.4639 25 14.5C25.1538 14.5361 25.3133 13.452 25.398 13.3457C26.2684 12.2547 27.5567 11.9645 28.7214 12.6129C29.6487 13.1288 29.9852 13.9701 29.9875 14.9636C29.9953 18.0832 29.9997 21.2028 29.9863 24.3224C29.9808 25.4846 30.051 26.6467 29.9184 27.8089C29.6966 29.7422 27.7462 31.6723 25.7691 31.9067C25.2642 31.9669 24.7593 31.9877 24.2523 31.9867C21.8973 31.9845 19.5413 31.9406 17.1886 31.9965C14.0613 32.071 11.4589 30.9515 9.2522 28.8342C8.28482 27.9053 7.2918 26.9973 6.41469 25.9851C5.79615 25.2721 4.9781 24.9117 4.14334 24.5502C2.88173 24.0047 1.63015 23.4362 0.36742 22.894C0.0475587 22.7571 -0.0427158 22.5786 0.0174671 22.239C0.301664 20.6321 1.42285 19.7624 3.24506 19.6506C5.19877 19.5312 6.96414 20.1096 8.68604 20.9114C8.99141 21.0538 9.30236 21.1874 9.5977 21.3496C9.90976 21.5215 9.98109 21.4076 9.95323 21.1097C9.94097 20.9706 9.951 20.8282 9.951 20.688C9.951 14.6788 9.951 8.66959 9.95211 2.65932C9.95211 1.43689 10.5227 0.561693 11.5536 0.178315C13.2789 -0.46357 14.9662 0.695328 14.9963 2.56731C15.0209 4.12711 15.003 5.68691 15.003 7.24671C15.003 8.49981 15.003 9.75291 15.0053 11.006C15.0053 11.1539 14.8626 13.1737 15.0053 13.3457L15.3442 11.2492Z" fill="white" fill-opacity="0.7"/>
<path d="M84.0196 15.7488C84.0196 13.9363 84.0255 12.1245 84.0181 10.312C84.0048 6.68248 85.573 3.88326 88.4239 1.82446C94.2036 -2.3498 102.374 0.976766 103.825 8.36654C103.967 9.09335 104.017 9.83074 104.016 10.5727C104.012 14.1969 104.002 17.8219 104.017 21.4462C104.033 24.9102 102.691 27.7185 100.078 29.8891C98.6784 31.0519 97.0122 31.6306 95.2363 31.8966C90.3876 32.6241 86.3156 29.4063 84.7592 25.6182C84.2474 24.3693 84.0285 23.0396 84.0226 21.6834C84.0129 19.7047 84.0203 17.7267 84.0196 15.748V15.7488ZM97.5352 8.00464C96.3661 6.59861 95.2674 5.27872 94.171 3.95731C94.0441 3.80393 93.9499 3.86664 93.849 3.98753C92.8127 5.22885 91.7748 6.46866 90.7385 7.71074C90.6843 7.77572 90.5908 7.84145 90.6554 7.94194C90.711 8.02882 90.8164 8.00087 90.9017 8.00087C91.346 8.00389 91.7911 8.01295 92.2355 8.00087C92.5204 7.99256 92.6302 8.10815 92.6279 8.39903C92.619 9.60635 92.619 10.8137 92.6279 12.021C92.6302 12.3126 92.5204 12.4275 92.2355 12.4184C91.8208 12.4056 91.4054 12.4124 90.9907 12.4184C90.8779 12.4199 90.7266 12.361 90.6606 12.4796C90.5864 12.6126 90.737 12.6904 90.8075 12.7758C91.0738 13.0991 91.3564 13.4097 91.6227 13.7323C92.3468 14.6102 93.0671 15.4919 93.7874 16.3728C93.9054 16.5171 94.0026 16.6803 94.1969 16.4454C95.2207 15.2131 96.2518 13.9869 97.2763 12.7554C97.3305 12.6904 97.3921 12.5876 97.3772 12.5189C97.349 12.3889 97.2125 12.4199 97.1139 12.4184C96.6695 12.4139 96.2244 12.4078 95.78 12.4169C95.5174 12.4222 95.4076 12.3172 95.4091 12.0444C95.4158 10.822 95.4158 9.59955 95.4091 8.37712C95.4076 8.10815 95.5093 7.99558 95.7763 8.00087C96.3231 8.01069 96.8705 8.00389 97.5352 8.00389V8.00464Z" fill="white" fill-opacity="0.7"/>
<path d="M57.5833 1.43431C57.2708 1.1219 56.7643 1.1219 56.4519 1.43431L51.3607 6.52548C51.0483 6.8379 51.0483 7.34443 51.3607 7.65685C51.6731 7.96927 52.1797 7.96927 52.4921 7.65685L57.0176 3.13137L61.5431 7.65685C61.8555 7.96927 62.362 7.96927 62.6744 7.65685C62.9869 7.34443 62.9869 6.8379 62.6744 6.52548L57.5833 1.43431ZM56.4519 32.5657C56.7643 32.8781 57.2708 32.8781 57.5833 32.5657L62.6744 27.4745C62.9869 27.1621 62.9869 26.6556 62.6744 26.3431C62.362 26.0307 61.8555 26.0307 61.5431 26.3431L57.0176 30.8686L52.4921 26.3431C52.1797 26.0307 51.6731 26.0307 51.3607 26.3431C51.0483 26.6556 51.0483 27.1621 51.3607 27.4745L56.4519 32.5657ZM57.0176 2L56.2176 2L56.2176 32L57.0176 32L57.8176 32L57.8176 2L57.0176 2Z" fill="white" fill-opacity="0.7"/>
<path d="M72.5833 17.5657C72.8957 17.2533 72.8957 16.7467 72.5833 16.4343L67.4921 11.3431C67.1797 11.0307 66.6731 11.0307 66.3607 11.3431C66.0483 11.6556 66.0483 12.1621 66.3607 12.4745L70.8862 17L66.3607 21.5255C66.0483 21.8379 66.0483 22.3444 66.3607 22.6569C66.6731 22.9693 67.1797 22.9693 67.4921 22.6569L72.5833 17.5657ZM41.4519 16.4343C41.1395 16.7467 41.1395 17.2533 41.4519 17.5657L46.5431 22.6569C46.8555 22.9693 47.362 22.9693 47.6744 22.6569C47.9869 22.3444 47.9869 21.8379 47.6744 21.5255L43.1489 17L47.6744 12.4745C47.9869 12.1621 47.9869 11.6556 47.6744 11.3431C47.362 11.0307 46.8555 11.0307 46.5431 11.3431L41.4519 16.4343ZM72.0176 17L72.0176 16.2L42.0176 16.2L42.0176 17L42.0176 17.8L72.0176 17.8L72.0176 17Z" fill="white" fill-opacity="0.7"/>
</svg>
