<svg width="67" height="53" viewBox="0 0 67 53" fill="none" xmlns="http://www.w3.org/2000/svg">
<path d="M15.3557 33.8532H26.8682V31.6408H18.2789V26.9706H25.6001V24.8868H18.2833V20.8459H26.7814V18.6777H15.3535V33.8532H15.3557Z" fill="white"/>
<path d="M27.7553 0.457643C24.7644 -0.392598 21.6542 0.249381 18.5527 0.0124603V15.1754H21.4198V9.41288C23.2435 9.32308 24.9965 9.50077 26.7318 9.25812C29.3558 8.89318 31.0667 7.43726 31.3099 5.36038C31.5818 3.01983 30.3461 1.19324 27.7575 0.457643H27.7553ZM28.4118 5.00118C28.3301 6.11127 27.6558 6.81439 26.4245 7.06469C24.7954 7.39523 23.1397 7.14876 21.4309 7.22518V2.23646C23.2391 2.33391 25.0474 1.96897 26.7849 2.54026C27.9565 2.92621 28.4981 3.82231 28.4118 5.00118Z" fill="white"/>
<path d="M15.2182 50.488C15.5716 51.2132 15.8884 51.8658 16.1966 52.4975C16.8755 52.5757 17.4552 52.5147 18.0436 52.3009C20.0672 51.5662 21.5543 50.2895 22.7138 48.698C24.6232 46.0759 26.0047 43.2 27.649 40.452C28.2482 39.452 28.8085 38.433 29.427 37.3547H26.1706C24.9077 39.6333 23.6556 41.889 22.3474 44.2477C20.897 41.8737 19.5177 39.6161 18.1427 37.3643H14.7139C16.7548 40.6123 18.744 43.7782 20.731 46.9404C19.4638 48.8335 17.5996 49.9517 15.2203 50.488H15.2182Z" fill="white"/>
<path d="M30.7061 33.7927H33.4589V26.9844C34.4078 26.8889 35.184 26.8126 35.8365 27.6467C37.118 29.2843 38.5062 30.8609 39.9412 32.3936C40.4722 32.9624 40.6897 33.932 41.9008 33.848C42.7986 33.787 43.7048 33.8366 44.7795 33.8366C42.3103 31.0671 39.9775 28.4522 37.6234 25.8124C39.6789 23.4457 41.7153 21.0999 43.8178 18.6777H40.3805C38.664 20.6628 36.9368 22.6593 35.2458 24.6157H33.4461V18.7006H30.7061V33.7946V33.7927Z" fill="white"/>
<path d="M40.4412 37.7726C37.4618 37.0014 34.4004 37.5779 31.3457 37.3584V52.5302H34.2055V46.7844C36.084 46.6928 37.8561 46.8589 39.615 46.6126C42.2355 46.2442 43.9191 44.7495 44.1184 42.5562C44.3289 40.2503 42.971 38.4311 40.4412 37.7764V37.7726ZM38.884 44.488C37.3732 44.7343 35.8425 44.5663 34.2542 44.6026V39.5918C35.8425 39.6547 37.3887 39.4429 38.915 39.7216C40.4523 40.0022 41.2298 40.8516 41.2143 42.1325C41.1966 43.4821 40.4988 44.2265 38.884 44.4899V44.488Z" fill="white"/>
<path d="M35.3097 15.1735C36.7033 13.2266 38.0924 11.2874 39.534 9.27323C41.0433 11.3008 42.4914 13.2477 43.909 15.1543H47.3382C45.3877 12.5347 43.5005 10.0016 41.6025 7.45125C43.4569 4.97583 45.2916 2.52924 47.1897 0H43.8719C42.4936 1.80083 41.1023 3.61896 39.652 5.51204C38.2693 3.58437 36.9654 1.76624 35.7007 0.00384383H32.2868C34.0975 2.52155 35.8492 4.95661 37.5988 7.38783C35.7225 9.9901 33.8813 12.5443 31.9854 15.1754H35.3141L35.3097 15.1735Z" fill="white"/>
<path d="M50.5371 0.00959619V15.1754H53.1032C55.792 11.5231 58.4767 7.87271 61.3257 4.00353V15.1658H63.9709V0H61.3861C58.7097 3.61968 56.0292 7.24704 53.1822 11.097V0.00959619H50.5392H50.5371Z" fill="white"/>
<path d="M12.7919 18.6777H0.639648V20.9432H5.30965V33.8532H8.11548V20.9394H12.794V18.6777H12.7919Z" fill="white"/>
<path d="M57.2964 35.6038C62.5853 35.5881 66.5289 31.8608 66.5289 26.8792C66.5289 21.8407 62.6069 18.1036 57.3071 18.0938C51.9362 18.084 47.9884 21.774 47.9776 26.8203C47.9646 31.8961 51.9168 35.6195 57.2964 35.6038ZM57.2662 20.4315C61.2399 20.4118 64.2714 23.1931 64.2585 26.8478C64.2456 30.5143 61.2852 33.2642 57.333 33.2818C53.2407 33.2995 50.2695 30.6026 50.2609 26.8615C50.2501 23.1421 53.1803 20.453 57.2662 20.4315Z" fill="#353535"/>
<path d="M47.9775 41.3465H58.8661V50.4652H47.9906V52.5304H66.5159V50.429H61.5665V41.3237H66.5289V39.106H47.9775V41.3446V41.3465Z" fill="#353535"/>
<path d="M6.21333 0C6.13198 0.142131 6.0442 0.263135 5.9864 0.393743C4.04682 4.84591 2.10939 9.29809 0.178374 13.7541C-0.0185805 14.2074 -0.059256 14.6799 0.0906009 15.1754H2.64031C3.14126 13.9827 3.63579 12.8053 4.13246 11.624H11.2849C11.8073 12.8206 12.3189 13.9923 12.8327 15.1677H15.9926C13.7147 10.0664 11.4669 5.0303 9.21903 0H6.21333ZM4.89459 9.36723C5.80657 7.25063 6.69287 5.19164 7.64339 2.98476C8.63244 5.1974 9.55299 7.25255 10.4971 9.36723H4.89459Z" fill="white"/>
<path d="M8.09533 52.5302V39.6123H12.794V37.3547H0.639648V39.6295H5.30637V52.5302H8.09321H8.09533Z" fill="white"/>
</svg>
